<svg width="72" height="41" viewBox="0 0 72 41" fill="none" xmlns="http://www.w3.org/2000/svg">
<path d="M5.106 24.4045V10.3635H0V5.25751C2.81953 5.25751 5.106 2.97104 5.106 0.151515H10.212V24.4055C10.212 30.7514 15.357 35.8945 21.702 35.8945C24.748 35.8945 27.67 34.6839 29.8247 32.5302L33.434 36.1395C26.9534 42.6201 16.4466 42.6201 9.96597 36.1395C6.85356 33.0271 5.10502 28.8066 5.10502 24.4045H5.106ZM66.378 33.3395V9.08652C66.378 6.97188 64.6636 5.25654 62.548 5.25654C60.4324 5.25654 58.719 6.9709 58.719 9.08652V33.3405H53.613V0.151515H58.719V1.01065C63.1816 -1.10204 68.5122 0.803676 70.6248 5.2663C71.1901 6.4603 71.484 7.7656 71.484 9.0875V33.3415H66.378V33.3395ZM33.189 24.4045V9.08652C33.2056 4.15138 37.2201 0.164207 42.1543 0.180803C47.066 0.1974 51.0434 4.17481 51.06 9.08652V18.0225H38.295V24.4055C38.295 26.5201 40.0094 28.2355 42.125 28.2355C44.2406 28.2355 45.955 26.5211 45.955 24.4055V23.1295H50.9682C51.0297 23.5522 51.061 23.9789 51.06 24.4055C51.0434 29.3406 47.0299 33.3278 42.0947 33.3112C37.183 33.2946 33.2046 29.3172 33.189 24.4055V24.4045ZM38.295 9.08652V12.9165H45.954V9.08652C45.954 6.97188 44.2396 5.25654 42.124 5.25654C40.0084 5.25654 38.294 6.9709 38.294 9.08652H38.295ZM12.765 24.4045V9.08652C12.765 4.15138 16.7658 0.151515 21.701 0.151515C26.6361 0.151515 30.637 4.15235 30.637 9.0875V18.0235H17.872V24.4065C17.8729 26.5211 19.5893 28.2345 21.7039 28.2335C23.8166 28.2326 25.53 26.5192 25.531 24.4065V23.1305H30.5452C30.6067 23.5532 30.6379 23.9798 30.6379 24.4065C30.6379 29.3416 26.6371 33.3425 21.702 33.3425C16.7668 33.3425 12.766 29.3416 12.766 24.4065L12.765 24.4045ZM17.871 9.08652V12.9165H25.53V9.08652C25.53 6.97188 23.8156 5.25751 21.7 5.25751C19.5844 5.25751 17.871 6.97188 17.871 9.08652Z" fill="#0097FE"/>
</svg>
