<svg width="60" height="35" viewBox="0 0 60 35" fill="none" xmlns="http://www.w3.org/2000/svg">
<path d="M4.255 21.1704V9.46955H0V5.21455C2.34961 5.21455 4.255 3.30916 4.255 0.959555H8.51V21.1712C8.51 26.4594 12.7975 30.7454 18.085 30.7454C20.6233 30.7454 23.0584 29.7365 24.8539 27.9418L27.8617 30.9496C22.4612 36.3501 13.7055 36.3501 8.30498 30.9496C5.7113 28.3559 4.25419 24.8388 4.25419 21.1704H4.255ZM55.315 28.6162V8.4054C55.315 6.64319 53.8863 5.21374 52.1233 5.21374C50.3603 5.21374 48.9325 6.64238 48.9325 8.4054V28.617H44.6775V0.959555H48.9325V1.6755C52.6513 -0.0850756 57.0935 1.50302 58.854 5.22188C59.3251 6.21688 59.57 7.30463 59.57 8.40621V28.6179H55.315V28.6162ZM27.6575 21.1704V8.4054C27.6713 4.29277 31.0167 0.970131 35.1286 0.983962C39.2217 0.997793 42.5362 4.3123 42.55 8.4054V15.852H31.9125V21.1712C31.9125 22.9334 33.3411 24.3629 35.1041 24.3629C36.8672 24.3629 38.2958 22.9342 38.2958 21.1712V20.1079H42.4735C42.5248 20.4601 42.5508 20.8157 42.55 21.1712C42.5362 25.2838 39.1916 28.6065 35.0789 28.5926C30.9858 28.5788 27.6705 25.2643 27.6575 21.1712V21.1704ZM31.9125 8.4054V11.5971H38.295V8.4054C38.295 6.64319 36.8664 5.21374 35.1033 5.21374C33.3403 5.21374 31.9117 6.64238 31.9117 8.4054H31.9125ZM10.6375 21.1704V8.4054C10.6375 4.29277 13.9715 0.959555 18.0842 0.959555C22.1968 0.959555 25.5308 4.29359 25.5308 8.40621V15.8529H14.8933V21.172C14.8941 22.9342 16.3244 24.362 18.0866 24.3612C19.8472 24.3604 21.275 22.9326 21.2758 21.172V20.1087H25.4543C25.5056 20.461 25.5316 20.8165 25.5316 21.172C25.5316 25.2846 22.1976 28.6187 18.085 28.6187C13.9723 28.6187 10.6383 25.2846 10.6383 21.172L10.6375 21.1704ZM14.8925 8.4054V11.5971H21.275V8.4054C21.275 6.64319 19.8464 5.21455 18.0833 5.21455C16.3203 5.21455 14.8925 6.64319 14.8925 8.4054Z" fill="#0097FE"/>
</svg>
