<svg width="720" height="676" viewBox="0 0 720 676" fill="none" xmlns="http://www.w3.org/2000/svg">
<g clip-path="url(#clip0_1_3)">
<path d="M259.788 129L222 153.789L228.197 163.236L265.986 138.447L259.788 129Z" fill="#0097FE"/>
<path d="M600 515.942L611.767 529.927L615.263 526.985L603.497 513L600 515.942Z" fill="#0097FE"/>
<path fill-rule="evenodd" clip-rule="evenodd" d="M179.372 612.015C173.016 623.024 158.94 626.795 147.932 620.44C136.924 614.084 133.152 600.008 139.508 589L149.474 594.754C146.296 600.258 148.182 607.296 153.686 610.474C159.19 613.652 166.228 611.766 169.406 606.262L179.372 612.015Z" fill="#FFDA55"/>
<path fill-rule="evenodd" clip-rule="evenodd" d="M638.262 34C646.432 43.7373 645.162 58.2544 635.425 66.4248C625.688 74.5952 611.17 73.3249 603 63.5876L611.816 56.1907C615.901 61.0593 623.159 61.6945 628.028 57.6093C632.897 53.5241 633.532 46.2656 629.447 41.397L638.262 34Z" fill="#1A4AB9"/>
<path fill-rule="evenodd" clip-rule="evenodd" d="M628 285.416C651.339 257.572 692.831 253.92 720.675 277.259C748.519 300.599 752.171 342.091 728.832 369.934L703.623 348.805L703.624 348.804C715.293 334.882 713.468 314.136 699.546 302.467C685.624 290.797 664.878 292.623 653.208 306.545L628 285.416Z" fill="#FFDA55"/>
</g>
<defs>
<clipPath id="clip0_1_3">
<rect width="720" height="676" fill="white"/>
</clipPath>
</defs>
</svg>
