<svg width="720" height="676" viewBox="0 0 720 676" fill="none" xmlns="http://www.w3.org/2000/svg">
<path d="M608 214.893L627.573 236.136L632.884 231.243L613.31 210L608 214.893Z" fill="#1A4AB9"/>
<path d="M239.667 23L221 45.043L226.511 49.7098L245.178 27.6668L239.667 23Z" fill="#1A4AB9"/>
<path fill-rule="evenodd" clip-rule="evenodd" d="M364.664 131.58C358.774 122.053 361.723 109.555 371.25 103.665C380.777 97.7749 393.275 100.723 399.165 110.25L390.54 115.583C387.595 110.819 381.346 109.345 376.583 112.29C371.819 115.235 370.345 121.484 373.29 126.247L364.664 131.58Z" fill="#FFDA55"/>
<path fill-rule="evenodd" clip-rule="evenodd" d="M309.103 613.536C295.976 636.272 266.903 644.062 244.167 630.935C221.431 617.809 213.641 588.736 226.768 566L247.351 577.884C240.788 589.252 244.682 603.789 256.051 610.352C267.419 616.915 281.955 613.02 288.518 601.652L309.103 613.536Z" fill="#0097FE"/>
<path fill-rule="evenodd" clip-rule="evenodd" d="M606 461.253C610.563 453.934 620.196 451.699 627.516 456.263C634.835 460.826 637.069 470.459 632.506 477.778L625.88 473.647C628.161 469.987 627.044 465.171 623.385 462.889C619.725 460.607 614.908 461.725 612.627 465.384L606 461.253Z" fill="#FFDA55"/>
</svg>
