<svg width="720" height="676" viewBox="0 0 720 676" fill="none" xmlns="http://www.w3.org/2000/svg">
<path d="M180 70.8934L199.573 92.136L204.884 87.2427L185.31 66.0001L180 70.8934Z" fill="#0097FE"/>
<path fill-rule="evenodd" clip-rule="evenodd" d="M601.47 197.195C594.583 186.561 597.62 172.358 608.253 165.471C618.887 158.583 633.09 161.62 639.978 172.254L630.351 178.489C626.907 173.172 619.805 171.654 614.488 175.097C609.172 178.541 607.653 185.643 611.097 190.959L601.47 197.195Z" fill="#0097FE"/>
<path fill-rule="evenodd" clip-rule="evenodd" d="M218.882 578.484C206.046 598.266 179.603 603.898 159.82 591.062C140.037 578.226 134.406 551.783 147.242 532L165.152 543.621C158.734 553.513 161.55 566.734 171.441 573.152C181.333 579.57 194.554 576.754 200.972 566.863L218.882 578.484Z" fill="#FFDA55"/>
</svg>
