<svg width="720" height="676" viewBox="0 0 720 676" fill="none" xmlns="http://www.w3.org/2000/svg">
<path d="M112 502.893L131.573 524.136L136.884 519.243L117.31 498L112 502.893Z" fill="#0097FE"/>
<path d="M607.957 150L592 174.078L598.019 178.067L613.976 153.99L607.957 150Z" fill="#1A4AB9"/>
<path fill-rule="evenodd" clip-rule="evenodd" d="M37.3519 197.85C25.5594 186.172 25.4672 167.144 37.1458 155.352C48.8244 143.56 67.8515 143.467 79.6439 155.146L69.0708 165.822C63.1746 159.983 53.661 160.029 47.8217 165.925C41.9824 171.821 42.0285 181.335 47.9247 187.174L37.3519 197.85Z" fill="#0097FE"/>
<path fill-rule="evenodd" clip-rule="evenodd" d="M612.57 603.8C607.654 612.62 596.519 615.786 587.699 610.871C578.879 605.955 575.713 594.82 580.628 586L588.614 590.45C586.156 594.86 587.739 600.428 592.149 602.885C596.559 605.343 602.127 603.76 604.584 599.35L612.57 603.8Z" fill="#FFDA55"/>
</svg>
