<svg width="720" height="676" viewBox="0 0 720 676" fill="none" xmlns="http://www.w3.org/2000/svg">
<g clip-path="url(#clip0_1_30)">
<path d="M408 597.893L427.573 619.136L432.884 614.243L413.31 593L408 597.893Z" fill="#FFDA55"/>
<path fill-rule="evenodd" clip-rule="evenodd" d="M631.82 171C636.096 178.406 633.559 187.877 626.152 192.153C618.746 196.429 609.276 193.891 605 186.485L611.705 182.614C613.843 186.317 618.578 187.586 622.281 185.448C625.984 183.31 627.253 178.575 625.115 174.872L631.82 171Z" fill="#1A4AB9"/>
<path fill-rule="evenodd" clip-rule="evenodd" d="M-32.9999 473.996C-14.7767 455.773 14.769 455.773 32.9922 473.996C51.2154 492.219 51.2154 521.765 32.9922 539.988L16.4946 523.491C25.6062 514.379 25.6062 499.606 16.4946 490.495C7.38295 481.383 -7.38989 481.383 -16.5015 490.495L-32.9999 473.996Z" fill="#0097FE"/>
<path fill-rule="evenodd" clip-rule="evenodd" d="M245.296 106.654C232.982 86.737 239.146 60.6087 259.064 48.2953C278.981 35.9818 305.109 42.1461 317.423 62.0635L299.392 73.2109C293.235 63.2523 280.171 60.1702 270.212 66.3269C260.253 72.4836 257.171 85.5477 263.328 95.5063L245.296 106.654Z" fill="#FFDA55"/>
</g>
<defs>
<clipPath id="clip0_1_30">
<rect width="720" height="676" fill="white"/>
</clipPath>
</defs>
</svg>
