<svg width="72" height="48" viewBox="0 0 72 48" fill="none" xmlns="http://www.w3.org/2000/svg">
<path d="M5.106 31.4045V17.3635H0V12.2575C2.81953 12.2575 5.106 9.97104 5.106 7.15151H10.212V31.4055C10.212 37.7514 15.357 42.8945 21.702 42.8945C24.748 42.8945 27.67 41.6839 29.8247 39.5302L33.434 43.1395C26.9534 49.6201 16.4466 49.6201 9.96597 43.1395C6.85356 40.0271 5.10502 35.8066 5.10502 31.4045H5.106ZM66.378 40.3395V16.0865C66.378 13.9719 64.6636 12.2565 62.548 12.2565C60.4324 12.2565 58.719 13.9709 58.719 16.0865V40.3405H53.613V7.15151H58.719V8.01065C63.1816 5.89796 68.5122 7.80368 70.6248 12.2663C71.1901 13.4603 71.484 14.7656 71.484 16.0875V40.3415H66.378V40.3395ZM33.189 31.4045V16.0865C33.2056 11.1514 37.2201 7.16421 42.1543 7.1808C47.066 7.1974 51.0434 11.1748 51.06 16.0865V25.0225H38.295V31.4055C38.295 33.5201 40.0094 35.2355 42.125 35.2355C44.2406 35.2355 45.955 33.5211 45.955 31.4055V30.1295H50.9682C51.0297 30.5522 51.061 30.9789 51.06 31.4055C51.0434 36.3406 47.0299 40.3278 42.0947 40.3112C37.183 40.2946 33.2046 36.3172 33.189 31.4055V31.4045ZM38.295 16.0865V19.9165H45.954V16.0865C45.954 13.9719 44.2396 12.2565 42.124 12.2565C40.0084 12.2565 38.294 13.9709 38.294 16.0865H38.295ZM12.765 31.4045V16.0865C12.765 11.1514 16.7658 7.15151 21.701 7.15151C26.6361 7.15151 30.637 11.1524 30.637 16.0875V25.0235H17.872V31.4065C17.8729 33.5211 19.5893 35.2345 21.7039 35.2335C23.8166 35.2326 25.53 33.5192 25.531 31.4065V30.1305H30.5452C30.6067 30.5532 30.6379 30.9798 30.6379 31.4065C30.6379 36.3416 26.6371 40.3425 21.702 40.3425C16.7668 40.3425 12.766 36.3416 12.766 31.4065L12.765 31.4045ZM17.871 16.0865V19.9165H25.53V16.0865C25.53 13.9719 23.8156 12.2575 21.7 12.2575C19.5844 12.2575 17.871 13.9719 17.871 16.0865Z" fill="url(#paint0_linear_179_1429)"/>
<defs>
<linearGradient id="paint0_linear_179_1429" x1="3.50933e-06" y1="7.14858" x2="71.4645" y2="47.9575" gradientUnits="userSpaceOnUse">
<stop stop-color="#791AB9"/>
<stop offset="1" stop-color="#0097FE"/>
</linearGradient>
</defs>
</svg>
