<?xml version="1.0" encoding="utf-8"?>
<!-- Generator: Adobe Illustrator 24.2.1, SVG Export Plug-In . SVG Version: 6.00 Build 0)  -->
<svg version="1.1" id="Capa_1" xmlns="http://www.w3.org/2000/svg" xmlns:xlink="http://www.w3.org/1999/xlink" x="0px" y="0px"
	 viewBox="0 0 915.3 600" style="enable-background:new 0 0 915.3 600;" xml:space="preserve">
<style type="text/css">
	.st0{fill:url(#v1_final_1_);}
</style>
<g id="teen_main" transform="translate(-385.5 -231.5)">
	
		<linearGradient id="v1_final_1_" gradientUnits="userSpaceOnUse" x1="245.6636" y1="1131.8145" x2="244.6636" y2="1130.8145" gradientTransform="matrix(732.2 0 0 -418.427 -178686.875 473891.0938)">
		<stop  offset="0" style="stop-color:#3964FF"/>
		<stop  offset="1" style="stop-color:#39C2FF"/>
	</linearGradient>
	<path id="v1_final" class="st0" d="M529.3,570V426.2H477v-52.3c28.9,0,52.3-23.4,52.3-52.3h52.3V570c0,65,52.7,117.7,117.7,117.7
		c31.2,0,61.1-12.4,83.2-34.5l37,37c-66.4,66.4-174,66.4-240.4,0C547.2,658.3,529.3,615.1,529.3,570z M1156.9,661.5V413.1
		c0-21.7-17.6-39.2-39.2-39.2s-39.2,17.6-39.2,39.2v248.4h-52.3v-340h52.3v8.8c45.7-21.6,100.3-2.1,121.9,43.6
		c5.8,12.2,8.8,25.6,8.8,39.1v248.4L1156.9,661.5z M817,570V413.1c0.2-50.5,41.3-91.4,91.8-91.2c50.3,0.2,91,40.9,91.2,91.2v91.5
		H869.3V570c0,21.7,17.6,39.2,39.2,39.2s39.2-17.6,39.2-39.2v-13.1h51.4c0.6,4.3,0.9,8.7,0.9,13.1c-0.2,50.5-41.3,91.4-91.8,91.2
		C857.9,661.1,817.1,620.3,817,570L817,570z M869.3,413.1v39.2h78.4v-39.2c0-21.7-17.6-39.2-39.2-39.2S869.3,391.4,869.3,413.1
		L869.3,413.1z M607.8,570V413.1c0-50.5,41-91.5,91.5-91.5s91.5,41,91.5,91.5v91.5H660.1V570c0,21.7,17.6,39.2,39.2,39.2
		c21.6,0,39.2-17.6,39.2-39.2v-13.1h51.4c0.6,4.3,0.9,8.7,0.9,13.1c0,50.5-41,91.5-91.5,91.5S607.8,620.5,607.8,570L607.8,570z
		 M660.1,413.1v39.2h78.4v-39.2c0-21.7-17.6-39.2-39.2-39.2S660.1,391.4,660.1,413.1L660.1,413.1z"/>
</g>
</svg>
